<?xml version="1.0" standalone="no"?><!-- Generator: Gravit.io --><svg xmlns="http://www.w3.org/2000/svg" xmlns:xlink="http://www.w3.org/1999/xlink" style="isolation:isolate" viewBox="0 0 300 300" width="300" height="300"><defs><clipPath id="_clipPath_Dkmh4wJH8DL9YstUUcpFfY0vHOHx0nW1"><rect width="300" height="300"/></clipPath></defs><g clip-path="url(#_clipPath_Dkmh4wJH8DL9YstUUcpFfY0vHOHx0nW1)"><line x1="400" y1="112" x2="406" y2="135" vector-effect="non-scaling-stroke" stroke-width="1" stroke="rgb(0,0,0)" stroke-linejoin="miter" stroke-linecap="square" stroke-miterlimit="3"/><path d=" M 81.364 53.129 L 105.279 53.129 Q 130.389 106.539 122.816 145.599 L 76.581 65.883 Q 69.805 53.129 81.364 53.129 Z " fill="rgb(0,191,172)"/><path d=" M 218.636 53.129 L 194.721 53.129 Q 169.611 106.539 177.184 145.599 L 223.419 65.883 Q 230.195 53.129 218.636 53.129 Z " fill="rgb(0,191,172)"/><path d=" M 113.25 53.129 L 186.589 53.129 Q 163.206 94.847 170.646 156.76 L 157.891 179.877 Q 150.451 188.38 141.948 179.877 L 127.599 156.76 Q 139.557 96.707 113.25 53.129 Z " fill="rgb(0,150,136)"/><path d=" M 29.387 205.809 L 29.387 205.809 L 28.262 205.809 L 28.262 205.809 Q 25.684 205.809 25.402 206.84 L 25.402 206.84 L 25.402 206.84 Q 25.262 207.332 25.262 213.801 L 25.262 213.801 L 25.262 222.566 L 25.238 223.715 L 25.238 223.715 Q 25.238 224.301 25.238 224.887 L 25.238 224.887 L 25.215 226.035 L 25.215 226.035 Q 25.215 226.621 25.215 227.207 L 25.215 227.207 L 25.191 228.73 L 25.191 229.879 L 25.191 229.879 Q 25.191 232.316 25.871 232.891 L 25.871 232.891 L 25.871 232.891 Q 26.551 233.465 29.176 233.465 L 29.176 233.465 L 29.551 233.441 L 29.551 233.441 Q 34.449 233.441 37.379 230.207 L 37.379 230.207 L 37.379 230.207 Q 38.855 228.59 39.699 225.977 L 39.699 225.977 L 39.699 225.977 Q 40.543 223.363 40.543 220.668 L 40.543 220.668 L 40.543 218.98 L 40.543 218.98 Q 40.543 216.473 39.793 213.848 L 39.793 213.848 L 39.793 213.848 Q 38.246 208.551 33.676 206.605 L 33.676 206.605 L 33.676 206.605 Q 31.824 205.809 29.387 205.809 Z  M 28.871 203.277 L 28.871 203.277 L 30.09 203.277 L 30.09 203.277 Q 41.832 203.301 45.535 212.441 L 45.535 212.441 L 45.535 212.441 Q 46.754 215.441 46.754 218.793 L 46.754 218.793 L 46.754 219.449 L 46.754 219.449 Q 46.754 223.34 45.465 226.434 L 45.465 226.434 L 45.465 226.434 Q 42.934 232.48 36.559 234.941 L 36.559 234.941 L 36.559 234.941 Q 33.629 236.066 30.09 236.066 L 30.09 236.066 L 28.332 236.066 L 27.746 236.043 L 26.551 236.02 L 26.551 236.02 Q 25.965 235.996 25.355 235.996 L 25.355 235.996 L 21.91 235.926 L 21.91 235.926 Q 16.66 235.926 16.66 235.152 L 16.66 235.152 L 16.66 235.152 Q 16.66 234.379 17.668 233.863 L 17.668 233.863 L 17.668 233.863 Q 19.402 232.973 19.66 232.457 L 19.66 232.457 L 19.66 232.457 Q 20.223 231.379 20.223 227.535 L 20.223 227.535 L 20.223 216.426 L 20.176 213.449 L 20.129 211.082 L 20.129 211.082 Q 20.129 207.941 19.578 207.098 L 19.578 207.098 L 19.578 207.098 Q 19.027 206.254 17.82 205.75 L 17.82 205.75 L 17.82 205.75 Q 16.613 205.246 16.613 204.496 L 16.613 204.496 L 16.613 204.496 Q 16.613 203.605 20.199 203.605 L 20.199 203.605 L 22.449 203.559 L 23.012 203.512 L 23.574 203.488 L 23.574 203.488 Q 28.637 203.277 28.871 203.277 Z  M 66.277 220.738 L 66.277 220.738 L 66.277 220.012 L 66.277 220.012 Q 66.277 218.277 65.035 216.883 L 65.035 216.883 L 65.035 216.883 Q 63.793 215.488 61.988 215.488 L 61.988 215.488 L 61.543 215.488 L 61.543 215.488 Q 61.215 215.535 61.098 215.535 L 61.098 215.535 L 61.098 215.535 Q 59.457 215.535 57.992 217.41 L 57.992 217.41 L 57.992 217.41 Q 56.527 219.285 56.527 221.418 L 56.527 221.418 L 56.527 221.723 L 56.527 221.723 Q 56.527 222.473 57.418 222.473 L 57.418 222.473 L 57.418 222.473 Q 57.77 222.543 57.793 222.543 L 57.793 222.543 L 58.332 222.566 L 58.473 222.566 L 58.637 222.543 L 63.16 222.285 L 64.004 222.191 L 64.004 222.191 Q 66.277 222.191 66.277 220.738 Z  M 56.527 226.949 L 56.527 226.949 L 56.527 226.949 Q 56.527 229.621 58.543 231.426 L 58.543 231.426 L 58.543 231.426 Q 60.559 233.23 63.652 233.23 L 63.652 233.23 L 63.652 233.23 Q 64.895 233.23 65.914 232.867 L 65.914 232.867 L 65.914 232.867 Q 66.934 232.504 68.141 231.988 L 68.141 231.988 L 68.141 231.988 Q 69.348 231.473 69.652 231.473 L 69.652 231.473 L 69.652 231.473 Q 70.59 231.473 70.59 232.48 L 70.59 232.48 L 70.59 232.48 Q 70.59 233.84 67.121 235.387 L 67.121 235.387 L 67.121 235.387 Q 64.871 236.395 62.293 236.395 L 62.293 236.395 L 61.777 236.395 L 61.777 236.395 Q 57.371 236.395 54.465 233.723 L 54.465 233.723 L 54.465 233.723 Q 52.895 232.27 52.027 230.008 L 52.027 230.008 L 52.027 230.008 Q 51.16 227.746 51.16 225.145 L 51.16 225.145 L 51.184 224.605 L 51.184 224.066 L 51.184 224.066 Q 51.184 221.816 52.215 219.637 L 52.215 219.637 L 52.215 219.637 Q 53.27 217.457 54.723 216.051 L 54.723 216.051 L 54.723 216.051 Q 57.793 213.098 62.012 213.074 L 62.012 213.074 L 62.012 213.074 Q 68.387 213.074 70.496 218.043 L 70.496 218.043 L 70.496 218.043 Q 71.152 219.613 71.152 220.926 L 71.152 220.926 L 71.152 221.395 L 71.152 221.395 Q 71.152 223.012 69.816 223.563 L 69.816 223.563 L 69.816 223.563 Q 68.48 224.113 63.512 224.465 L 63.512 224.465 L 63.512 224.465 Q 58.543 224.816 58.121 224.934 L 58.121 224.934 L 58.121 224.934 Q 56.527 225.332 56.527 226.949 Z  M 90.605 225.449 L 90.605 225.449 Q 92.457 227.207 92.457 229.891 L 92.457 229.891 L 92.457 229.891 Q 92.457 232.574 90.254 234.484 L 90.254 234.484 L 90.254 234.484 Q 88.051 236.395 84.16 236.395 L 84.16 236.395 L 83.527 236.395 L 83.527 236.395 Q 79.098 236.395 76.777 235.293 L 76.777 235.293 L 76.777 235.293 Q 75.488 234.684 75.488 232.574 L 75.488 232.574 L 75.488 231.988 L 75.488 231.988 Q 75.488 229.293 76.496 229.293 L 76.496 229.293 L 76.496 229.293 Q 77.34 229.293 78.488 230.875 L 78.488 230.875 L 78.488 230.875 Q 79.637 232.457 80.41 232.996 L 80.41 232.996 L 80.41 232.996 Q 81.91 234.027 83.938 234.027 L 83.938 234.027 L 83.938 234.027 Q 85.965 234.027 86.926 233.172 L 86.926 233.172 L 86.926 233.172 Q 87.887 232.316 87.887 230.91 L 87.887 230.91 L 87.887 230.91 Q 87.887 229.504 86.246 228.309 L 86.246 228.309 L 86.246 228.309 Q 85.379 227.676 82.203 226.316 L 82.203 226.316 L 82.203 226.316 Q 79.027 224.957 77.457 223.469 L 77.457 223.469 L 77.457 223.469 Q 75.887 221.98 75.887 219.262 L 75.887 219.262 L 75.887 219.262 Q 75.887 216.543 78.16 214.844 L 78.16 214.844 L 78.16 214.844 Q 80.434 213.145 83.762 213.145 L 83.762 213.145 L 84.395 213.145 L 84.395 213.145 Q 88.754 213.145 90.512 214.176 L 90.512 214.176 L 90.512 214.176 Q 91.426 214.715 91.426 217.176 L 91.426 217.176 L 91.426 217.176 Q 91.426 219.637 90.254 219.637 L 90.254 219.637 L 90.254 219.637 Q 89.598 219.637 88.461 218.172 L 88.461 218.172 L 88.461 218.172 Q 87.324 216.707 86.387 216.086 L 86.387 216.086 L 86.387 216.086 Q 85.449 215.465 83.797 215.465 L 83.797 215.465 L 83.797 215.465 Q 82.145 215.465 81.184 216.215 L 81.184 216.215 L 81.184 216.215 Q 80.223 216.965 80.223 218.383 L 80.223 218.383 L 80.223 218.383 Q 80.223 219.801 81.98 220.926 L 81.98 220.926 L 81.98 220.926 Q 82.426 221.23 85.871 222.73 L 85.871 222.73 L 85.871 222.73 Q 89.316 224.23 90.605 225.449 L 90.605 225.449 L 90.605 225.449 Z  M 111.23 220.738 L 111.23 220.738 L 111.23 220.012 L 111.23 220.012 Q 111.23 218.277 109.988 216.883 L 109.988 216.883 L 109.988 216.883 Q 108.746 215.488 106.941 215.488 L 106.941 215.488 L 106.496 215.488 L 106.496 215.488 Q 106.168 215.535 106.051 215.535 L 106.051 215.535 L 106.051 215.535 Q 104.41 215.535 102.945 217.41 L 102.945 217.41 L 102.945 217.41 Q 101.48 219.285 101.48 221.418 L 101.48 221.418 L 101.48 221.723 L 101.48 221.723 Q 101.48 222.473 102.371 222.473 L 102.371 222.473 L 102.371 222.473 Q 102.723 222.543 102.746 222.543 L 102.746 222.543 L 103.285 222.566 L 103.426 222.566 L 103.59 222.543 L 108.113 222.285 L 108.957 222.191 L 108.957 222.191 Q 111.23 222.191 111.23 220.738 Z  M 101.48 226.949 L 101.48 226.949 L 101.48 226.949 Q 101.48 229.621 103.496 231.426 L 103.496 231.426 L 103.496 231.426 Q 105.512 233.23 108.605 233.23 L 108.605 233.23 L 108.605 233.23 Q 109.848 233.23 110.867 232.867 L 110.867 232.867 L 110.867 232.867 Q 111.887 232.504 113.094 231.988 L 113.094 231.988 L 113.094 231.988 Q 114.301 231.473 114.605 231.473 L 114.605 231.473 L 114.605 231.473 Q 115.543 231.473 115.543 232.48 L 115.543 232.48 L 115.543 232.48 Q 115.543 233.84 112.074 235.387 L 112.074 235.387 L 112.074 235.387 Q 109.824 236.395 107.246 236.395 L 107.246 236.395 L 106.73 236.395 L 106.73 236.395 Q 102.324 236.395 99.418 233.723 L 99.418 233.723 L 99.418 233.723 Q 97.848 232.27 96.98 230.008 L 96.98 230.008 L 96.98 230.008 Q 96.113 227.746 96.113 225.145 L 96.113 225.145 L 96.137 224.605 L 96.137 224.066 L 96.137 224.066 Q 96.137 221.816 97.168 219.637 L 97.168 219.637 L 97.168 219.637 Q 98.223 217.457 99.676 216.051 L 99.676 216.051 L 99.676 216.051 Q 102.746 213.098 106.965 213.074 L 106.965 213.074 L 106.965 213.074 Q 113.34 213.074 115.449 218.043 L 115.449 218.043 L 115.449 218.043 Q 116.105 219.613 116.105 220.926 L 116.105 220.926 L 116.105 221.395 L 116.105 221.395 Q 116.105 223.012 114.77 223.563 L 114.77 223.563 L 114.77 223.563 Q 113.434 224.113 108.465 224.465 L 108.465 224.465 L 108.465 224.465 Q 103.496 224.816 103.074 224.934 L 103.074 224.934 L 103.074 224.934 Q 101.48 225.332 101.48 226.949 Z  M 125.129 235.785 L 123.676 235.785 L 123.676 235.785 Q 120.371 235.785 120.371 234.848 L 120.371 234.848 L 120.371 234.848 Q 120.371 234.074 121.238 233.582 L 121.238 233.582 L 121.238 233.582 Q 122.809 232.691 123.066 231.977 L 123.066 231.977 L 123.066 231.977 Q 123.324 231.262 123.324 225.203 L 123.324 225.203 L 123.324 225.203 Q 123.324 219.145 122.961 218.102 L 122.961 218.102 L 122.961 218.102 Q 122.598 217.059 121.637 216.379 L 121.637 216.379 L 121.637 216.379 Q 120.676 215.699 120.676 215.277 L 120.676 215.277 L 120.676 215.277 Q 120.676 214.855 121.309 214.48 L 121.309 214.48 L 121.309 214.48 Q 122.785 213.613 125.996 213.613 L 125.996 213.613 L 125.996 213.613 Q 126.957 213.613 127.496 214.27 L 127.496 214.27 L 127.496 214.27 Q 127.684 214.504 128.023 215.289 L 128.023 215.289 L 128.023 215.289 Q 128.363 216.074 128.48 216.074 L 128.48 216.074 L 128.48 216.074 Q 128.926 216.051 129.863 215.441 L 129.863 215.441 L 129.863 215.441 Q 133.098 213.262 135.723 213.262 L 135.723 213.262 L 135.77 213.262 L 136.52 213.262 L 136.52 213.262 Q 138.418 213.262 139.941 214.199 L 139.941 214.199 L 139.941 214.199 Q 141.465 215.137 142.297 217.012 L 142.297 217.012 L 142.297 217.012 Q 143.129 218.887 143.129 225.18 L 143.129 225.18 L 143.129 225.18 Q 143.129 231.473 143.398 232.211 L 143.398 232.211 L 143.398 232.211 Q 143.668 232.949 144.922 233.582 L 144.922 233.582 L 144.922 233.582 Q 146.176 234.215 146.176 234.824 L 146.176 234.824 L 146.176 234.824 Q 146.176 235.879 139.52 235.879 L 139.52 235.879 L 138.816 235.879 L 138.816 235.879 Q 136.707 235.879 136.707 234.871 L 136.707 234.871 L 136.707 234.871 Q 136.707 234.66 137.223 233.852 L 137.223 233.852 L 137.223 233.852 Q 137.738 233.043 137.926 232.059 L 137.926 232.059 L 137.926 232.059 Q 138.113 231.074 138.113 225.578 L 138.113 225.578 L 138.113 225.578 Q 138.113 220.082 137.434 218.512 L 137.434 218.512 L 137.434 218.512 Q 136.496 216.355 134.316 216.355 L 134.316 216.355 L 134.316 216.355 Q 132.723 216.355 131.234 217.094 L 131.234 217.094 L 131.234 217.094 Q 129.746 217.832 129.078 219.18 L 129.078 219.18 L 129.078 219.18 Q 128.41 220.527 128.41 225.625 L 128.41 225.625 L 128.41 225.625 Q 128.41 230.723 128.691 231.789 L 128.691 231.789 L 128.691 231.789 Q 128.973 232.855 129.371 233.512 L 129.371 233.512 L 130.238 234.918 L 130.238 234.918 Q 130.238 235.832 126.559 235.832 L 126.559 235.832 L 125.129 235.785 L 125.129 235.785 Z  M 160.379 236.277 L 160.379 236.277 L 159.84 236.277 L 159.84 236.277 Q 158.738 236.277 157.66 234.238 L 157.66 234.238 L 157.66 234.238 Q 157.121 233.207 154.355 226.152 L 154.355 226.152 L 154.355 226.152 Q 151.59 219.098 150.98 218.008 L 150.98 218.008 L 150.98 218.008 Q 150.371 216.918 149.082 216.063 L 149.082 216.063 L 149.082 216.063 Q 147.793 215.207 147.793 214.762 L 147.793 214.762 L 147.793 214.762 Q 147.793 214.035 148.824 213.824 L 148.824 213.824 L 148.824 213.824 Q 149.855 213.613 153.535 213.613 L 153.535 213.613 L 153.535 213.613 Q 157.215 213.613 157.215 214.668 L 157.215 214.668 L 157.215 214.668 Q 157.215 214.738 156.957 215.43 L 156.957 215.43 L 156.957 215.43 Q 156.699 216.121 156.699 216.941 L 156.699 216.941 L 156.699 216.941 Q 156.699 220.152 160.355 228.613 L 160.355 228.613 L 160.355 228.613 Q 161.035 230.16 161.316 230.16 L 161.316 230.16 L 161.316 230.16 Q 161.598 230.16 162.23 228.754 L 162.23 228.754 L 162.23 228.754 Q 166.004 220.41 166.004 217.176 L 166.004 217.176 L 166.004 217.176 Q 166.004 216.379 165.395 215.488 L 165.395 215.488 L 165.395 215.488 Q 164.785 214.598 164.785 214.574 L 164.785 214.574 L 164.785 214.574 Q 164.785 213.566 169.145 213.566 L 169.145 213.566 L 169.707 213.566 L 169.707 213.566 Q 172.566 213.566 172.566 214.551 L 172.566 214.551 L 172.566 214.551 Q 172.566 215.395 171.324 216.203 L 171.324 216.203 L 171.324 216.203 Q 170.082 217.012 169.426 218.207 L 169.426 218.207 L 169.426 218.207 Q 169.121 218.746 166.309 225.719 L 166.309 225.719 L 166.309 225.719 Q 163.496 232.691 162.512 234.484 L 162.512 234.484 L 162.512 234.484 Q 161.527 236.277 160.379 236.277 Z  M 179.832 223.902 L 179.832 223.902 L 179.832 224.77 L 179.832 224.77 Q 179.832 228.754 181.379 231.379 L 181.379 231.379 L 181.379 231.379 Q 182.105 232.621 183.23 233.348 L 183.23 233.348 L 183.23 233.348 Q 184.355 234.074 185.504 234.074 L 185.504 234.074 L 185.973 234.074 L 185.973 234.074 Q 188.105 234.074 189.664 232 L 189.664 232 L 189.664 232 Q 191.223 229.926 191.223 226.105 L 191.223 226.105 L 191.223 224.441 L 191.223 224.441 Q 191.223 220.668 189.664 218.031 L 189.664 218.031 L 189.664 218.031 Q 188.105 215.395 185.715 215.395 L 185.715 215.395 L 184.988 215.395 L 184.988 215.395 Q 182.832 215.395 181.332 217.715 L 181.332 217.715 L 181.332 217.715 Q 179.832 220.035 179.832 223.902 Z  M 196.871 223.996 L 196.871 223.996 L 196.871 225.168 L 196.871 225.168 Q 196.871 227.02 196.121 229.223 L 196.121 229.223 L 196.121 229.223 Q 194.551 233.816 189.863 235.645 L 189.863 235.645 L 189.863 235.645 Q 187.824 236.441 185.926 236.441 L 185.926 236.441 L 185.152 236.441 L 185.152 236.441 Q 180.676 236.441 177.676 233.441 L 177.676 233.441 L 177.676 233.441 Q 176.316 232.082 175.473 229.855 L 175.473 229.855 L 175.473 229.855 Q 174.629 227.629 174.629 225.121 L 174.629 225.121 L 174.629 224.723 L 174.629 224.723 Q 174.629 222.449 175.426 220.129 L 175.426 220.129 L 175.426 220.129 Q 176.973 215.605 181.496 213.848 L 181.496 213.848 L 181.496 213.848 Q 183.535 213.051 185.41 213.051 L 185.41 213.051 L 186.582 213.051 L 186.582 213.051 Q 188.668 213.051 190.684 213.988 L 190.684 213.988 L 190.684 213.988 Q 194.504 215.77 196.004 219.66 L 196.004 219.66 L 196.004 219.66 Q 196.871 221.957 196.871 223.996 Z  M 200.855 235.152 L 200.855 235.152 L 200.855 235.152 Q 200.855 234.66 201.922 233.887 L 201.922 233.887 L 201.922 233.887 Q 202.988 233.113 203.363 231.461 L 203.363 231.461 L 203.363 231.461 Q 203.738 229.809 203.738 218.91 L 203.738 218.91 L 203.738 218.91 Q 203.738 208.012 203.492 206.559 L 203.492 206.559 L 203.492 206.559 Q 203.246 205.105 202.285 204.473 L 202.285 204.473 L 202.285 204.473 Q 200.738 203.465 200.738 203.23 L 200.738 203.23 L 200.738 202.949 L 200.738 202.949 Q 200.738 202.551 201.418 202.246 L 201.418 202.246 L 201.418 202.246 Q 203.527 201.332 207.043 201.332 L 207.043 201.332 L 207.512 201.332 L 207.512 201.332 Q 208.707 201.332 208.895 202.949 L 208.895 202.949 L 208.895 202.949 Q 208.918 203.16 208.918 206.488 L 208.918 206.488 L 208.918 211.527 L 208.895 212.488 L 208.895 213.965 L 208.871 214.926 L 208.871 214.926 Q 208.871 214.926 208.871 222.355 L 208.871 222.355 L 208.871 222.355 Q 208.871 229.293 209.094 230.945 L 209.094 230.945 L 209.094 230.945 Q 209.316 232.598 210.137 233.348 L 210.137 233.348 L 210.137 233.348 Q 210.23 233.418 211.121 233.957 L 211.121 233.957 L 211.121 233.957 Q 212.012 234.496 212.012 235.059 L 212.012 235.059 L 212.012 235.059 Q 212.012 235.879 209.105 235.879 L 209.105 235.879 L 208.145 235.926 L 207.184 235.926 L 203.34 235.996 L 202.848 235.996 L 202.848 235.996 Q 200.855 235.996 200.855 235.152 Z  M 226.66 236.277 L 226.66 236.277 L 226.121 236.277 L 226.121 236.277 Q 225.02 236.277 223.941 234.238 L 223.941 234.238 L 223.941 234.238 Q 223.402 233.207 220.637 226.152 L 220.637 226.152 L 220.637 226.152 Q 217.871 219.098 217.262 218.008 L 217.262 218.008 L 217.262 218.008 Q 216.652 216.918 215.363 216.063 L 215.363 216.063 L 215.363 216.063 Q 214.074 215.207 214.074 214.762 L 214.074 214.762 L 214.074 214.762 Q 214.074 214.035 215.105 213.824 L 215.105 213.824 L 215.105 213.824 Q 216.137 213.613 219.816 213.613 L 219.816 213.613 L 219.816 213.613 Q 223.496 213.613 223.496 214.668 L 223.496 214.668 L 223.496 214.668 Q 223.496 214.738 223.238 215.43 L 223.238 215.43 L 223.238 215.43 Q 222.98 216.121 222.98 216.941 L 222.98 216.941 L 222.98 216.941 Q 222.98 220.152 226.637 228.613 L 226.637 228.613 L 226.637 228.613 Q 227.316 230.16 227.598 230.16 L 227.598 230.16 L 227.598 230.16 Q 227.879 230.16 228.512 228.754 L 228.512 228.754 L 228.512 228.754 Q 232.285 220.41 232.285 217.176 L 232.285 217.176 L 232.285 217.176 Q 232.285 216.379 231.676 215.488 L 231.676 215.488 L 231.676 215.488 Q 231.066 214.598 231.066 214.574 L 231.066 214.574 L 231.066 214.574 Q 231.066 213.566 235.426 213.566 L 235.426 213.566 L 235.988 213.566 L 235.988 213.566 Q 238.848 213.566 238.848 214.551 L 238.848 214.551 L 238.848 214.551 Q 238.848 215.395 237.605 216.203 L 237.605 216.203 L 237.605 216.203 Q 236.363 217.012 235.707 218.207 L 235.707 218.207 L 235.707 218.207 Q 235.402 218.746 232.59 225.719 L 232.59 225.719 L 232.59 225.719 Q 229.777 232.691 228.793 234.484 L 228.793 234.484 L 228.793 234.484 Q 227.809 236.277 226.66 236.277 Z  M 255.91 220.738 L 255.91 220.738 L 255.91 220.012 L 255.91 220.012 Q 255.91 218.277 254.668 216.883 L 254.668 216.883 L 254.668 216.883 Q 253.426 215.488 251.621 215.488 L 251.621 215.488 L 251.176 215.488 L 251.176 215.488 Q 250.848 215.535 250.73 215.535 L 250.73 215.535 L 250.73 215.535 Q 249.09 215.535 247.625 217.41 L 247.625 217.41 L 247.625 217.41 Q 246.16 219.285 246.16 221.418 L 246.16 221.418 L 246.16 221.723 L 246.16 221.723 Q 246.16 222.473 247.051 222.473 L 247.051 222.473 L 247.051 222.473 Q 247.402 222.543 247.426 222.543 L 247.426 222.543 L 247.965 222.566 L 248.105 222.566 L 248.27 222.543 L 252.793 222.285 L 253.637 222.191 L 253.637 222.191 Q 255.91 222.191 255.91 220.738 Z  M 246.16 226.949 L 246.16 226.949 L 246.16 226.949 Q 246.16 229.621 248.176 231.426 L 248.176 231.426 L 248.176 231.426 Q 250.191 233.23 253.285 233.23 L 253.285 233.23 L 253.285 233.23 Q 254.527 233.23 255.547 232.867 L 255.547 232.867 L 255.547 232.867 Q 256.566 232.504 257.773 231.988 L 257.773 231.988 L 257.773 231.988 Q 258.98 231.473 259.285 231.473 L 259.285 231.473 L 259.285 231.473 Q 260.223 231.473 260.223 232.48 L 260.223 232.48 L 260.223 232.48 Q 260.223 233.84 256.754 235.387 L 256.754 235.387 L 256.754 235.387 Q 254.504 236.395 251.926 236.395 L 251.926 236.395 L 251.41 236.395 L 251.41 236.395 Q 247.004 236.395 244.098 233.723 L 244.098 233.723 L 244.098 233.723 Q 242.527 232.27 241.66 230.008 L 241.66 230.008 L 241.66 230.008 Q 240.793 227.746 240.793 225.145 L 240.793 225.145 L 240.816 224.605 L 240.816 224.066 L 240.816 224.066 Q 240.816 221.816 241.848 219.637 L 241.848 219.637 L 241.848 219.637 Q 242.902 217.457 244.355 216.051 L 244.355 216.051 L 244.355 216.051 Q 247.426 213.098 251.645 213.074 L 251.645 213.074 L 251.645 213.074 Q 258.02 213.074 260.129 218.043 L 260.129 218.043 L 260.129 218.043 Q 260.785 219.613 260.785 220.926 L 260.785 220.926 L 260.785 221.395 L 260.785 221.395 Q 260.785 223.012 259.449 223.563 L 259.449 223.563 L 259.449 223.563 Q 258.113 224.113 253.145 224.465 L 253.145 224.465 L 253.145 224.465 Q 248.176 224.816 247.754 224.934 L 247.754 224.934 L 247.754 224.934 Q 246.16 225.332 246.16 226.949 Z  M 276.793 235.059 L 276.793 235.059 L 276.793 235.059 Q 276.793 235.973 272.551 235.973 L 272.551 235.973 L 270.066 235.973 L 269.082 235.926 L 267.605 235.902 L 267.605 235.902 Q 265.121 235.902 265.121 235.012 L 265.121 235.012 L 265.121 235.012 Q 265.121 234.379 266.234 233.664 L 266.234 233.664 L 266.234 233.664 Q 267.348 232.949 267.734 231.813 L 267.734 231.813 L 267.734 231.813 Q 268.121 230.676 268.121 225.098 L 268.121 225.098 L 268.121 225.098 Q 268.121 219.52 267.758 218.324 L 267.758 218.324 L 267.758 218.324 Q 267.395 217.129 266.621 216.613 L 266.621 216.613 L 266.621 216.613 Q 265.238 215.699 265.238 215.277 L 265.238 215.277 L 265.238 215.277 Q 265.238 214.855 265.73 214.527 L 265.73 214.527 L 265.73 214.527 Q 267.184 213.543 270.652 213.543 L 270.652 213.543 L 271.098 213.543 L 271.098 213.543 Q 272.434 213.543 272.996 214.891 L 272.996 214.891 L 272.996 214.891 Q 273.559 216.238 273.91 216.238 L 273.91 216.238 L 273.91 216.238 Q 274.262 216.238 275.117 215.582 L 275.117 215.582 L 275.117 215.582 Q 275.973 214.926 277.18 214.27 L 277.18 214.27 L 277.18 214.27 Q 278.387 213.613 279.863 213.613 L 279.863 213.613 L 279.863 213.613 Q 281.34 213.613 282.125 214.375 L 282.125 214.375 L 282.125 214.375 Q 282.91 215.137 282.91 216.332 L 282.91 216.332 L 282.91 216.332 Q 282.887 217.551 282.277 218.16 L 282.277 218.16 L 282.277 218.16 Q 281.668 218.77 280.965 218.77 L 280.965 218.77 L 280.965 218.77 Q 280.262 218.77 279.113 218.195 L 279.113 218.195 L 279.113 218.195 Q 277.965 217.621 277.191 217.621 L 277.191 217.621 L 277.191 217.621 Q 276.418 217.621 275.504 218.266 L 275.504 218.266 L 275.504 218.266 Q 274.59 218.91 273.945 220.563 L 273.945 220.563 L 273.945 220.563 Q 273.301 222.215 273.301 226.211 L 273.301 226.211 L 273.301 226.211 Q 273.301 230.207 273.863 231.367 L 273.863 231.367 L 273.863 231.367 Q 274.426 232.527 275.609 233.488 L 275.609 233.488 L 275.609 233.488 Q 276.793 234.449 276.793 235.059 Z " fill="rgb(0,150,136)"/></g></svg>